<?xml version="1.0" encoding="utf-8"?>
<!-- Generator: Adobe Illustrator 14.0.0, SVG Export Plug-In . SVG Version: 6.00 Build 43363)  -->
<!DOCTYPE svg PUBLIC "-//W3C//DTD SVG 1.0//EN" "http://www.w3.org/TR/2001/REC-SVG-20010904/DTD/svg10.dtd">
<svg version="1.0" id="Layer_1" xmlns="http://www.w3.org/2000/svg" xmlns:xlink="http://www.w3.org/1999/xlink" x="0px" y="0px"
	 width="95.465px" height="100px" viewBox="0 0 95.465 100" enable-background="new 0 0 95.465 100" xml:space="preserve">
<polygon points="39.323,20.517 22.705,37.134 0,37.134 0,62.865 22.705,62.865 39.323,79.486 "/>
<path d="M52.287,77.218c14.751-15.316,14.751-39.116,0-54.436c-2.909-3.02-7.493,1.577-4.59,4.59
	c12.285,12.757,12.285,32.498,0,45.254C44.794,75.645,49.378,80.241,52.287,77.218L52.287,77.218z"/>
<path d="M62.619,89.682c21.551-22.103,21.551-57.258,0-79.36c-2.927-3.001-7.515,1.592-4.592,4.59
	c19.08,19.57,19.08,50.608,0,70.179C55.104,88.089,59.692,92.683,62.619,89.682L62.619,89.682z"/>
<path d="M75.48,99.025c26.646-27.192,26.646-70.855,0-98.051c-2.936-2.996-7.524,1.601-4.592,4.59
	c24.174,24.674,24.174,64.2,0,88.871C67.956,97.428,72.545,102.021,75.48,99.025L75.48,99.025z"/>
</svg>
